<?xml version="1.0" encoding="UTF-8"?><svg id="Layer_1" xmlns="http://www.w3.org/2000/svg" viewBox="0 0 553.72 407.63"><polyline points="338.13 144.34 344.78 140.9 399.59 112.59 421.87 61.78" fill="none" stroke="#3f52a4" stroke-linecap="round" stroke-linejoin="round" stroke-width="5"/><path d="m477.24,359.07l1.32-25.19c.35-6.78-5.18-12.74-13.11-14.23-18.51-3.47-49.83-16.72-81.84-68.85" fill="none" stroke="#3f52a4" stroke-linecap="round" stroke-linejoin="round" stroke-width="5"/><path d="m136.61,215.27s-72.38-17.18-93.71,34.35" fill="none" stroke="#3f52a4" stroke-linecap="round" stroke-linejoin="round" stroke-width="5"/><path d="m36.1,124.34s4.57,48.34,102.09,41.98" fill="none" stroke="#3f52a4" stroke-linecap="round" stroke-linejoin="round" stroke-width="5"/><line x1="270.03" y1="60.41" x2="337.45" y2="10.88" fill="none" stroke="#3f52a4" stroke-linecap="round" stroke-linejoin="round" stroke-width="3"/><path d="m476.53,185.16c43.05,40.32,77.19,48.6,77.19,48.6l-18.5,2.93-.13-.8c-27.81,4.22-89.94,9.65-108.93-22.07,7.5-13.88,38.04-33.33,50.37-28.66Z" fill="#3f52a4"/><path d="m426.16,213.82c18.99,31.72,81.12,26.29,108.93,22.07l.13.8-3.6.57s-49.11,38.81-57.52,44.84c-8.7,6.24-53.52,14.54-85.52-29.99l-1.18.42c-.71-2-1.47-3.98-2.27-5.95-11.39-28.01-31.58-53.86-46.36-70.94l.47-.4s79.62,53.75,86.48,39.43c.13-.28.28-.56.44-.85Z" fill="#587bbd"/><path d="m342.72,145.03c-5.23,3.28-12.55,6.23-22.37,8.73-14.4,3.67-34.16,6.38-60.54,7.8,61.81-50.93,3.11-104.12,3.11-104.12,0,0,127.64,57.64,79.8,87.59Z" fill="#3f52a4"/><path d="m336.58,172.69s27.43,14.31,38.85,8.91c11.43-5.41,54.48-41.03,98.67,1.27.81.78,1.62,1.54,2.43,2.29-12.33-4.67-42.87,14.78-50.37,28.66-.16.29-.31.57-.44.85-6.86,14.32-86.48-39.43-86.48-39.43l-.47.4c-.83-.95-1.63-1.87-2.41-2.76l.22-.19Z" fill="#1c1b53"/><path d="m349.49,10.56c-2.53,3.48-7.9,4.78-12,2.9s-5.37-6.22-2.84-9.7,7.91-4.78,12.01-2.9c4.09,1.88,5.36,6.22,2.83,9.7Z" fill="#1c1b53"/><path d="m320.77,155.39c1.19,1.83,7.33,8.1,15.59,17.49.78.89,1.58,1.81,2.41,2.76,14.78,17.08,34.97,42.93,46.36,70.94l-.55.22-37.34,22.58s-15.62-11.45-34.66-3.18c-19.05,8.27-45.72-17.8-45.72-17.8h0c-41-34.23-7.05-86.84-7.05-86.84,26.38-1.42,46.14-4.13,60.54-7.8l.42,1.63Z" fill="#ebe646"/><path d="m225.78,343.14s-1.51,45.47,81.53,32.86c-8.44,12.15-24.12,18.48-47.9,17.28-10.75-.53-43.56-14.36-44.03-14.36-50.86,2.11-82.17,27.91-83.14,28.71l48.44-63.2.46-296.16h43.72l.92,294.87Z" fill="#3f52a4"/><path d="m266.86,248.4s26.67,26.07,45.72,17.8c19.04-8.27,34.66,3.18,34.66,3.18l37.34-22.58.55-.22c.8,1.97,1.56,3.95,2.27,5.95,14.66,41.08,8.62,85.7-61.65,113.54,0,0-82.46-51.46-58.89-117.67Z" fill="#3f52a4"/><path d="m.15,48.27h142.16C42.8,50.56.15,121.18.15,121.18V48.27Z" fill="#3f52a4"/><path d="m139.1,268.39l-.46,108.23-138.64-1.3v-75.69l25.2,20.53c5.64,3.98,12.13,7.98,18.06,11.52,22.84,13.65,51.83,13.74,56.39-18.87,7.47-53.47,7.35-59.55,39.45-44.42Z" fill="#3f52a4"/></svg>